<?xml version="1.0" encoding="UTF-8" standalone="no"?>
<!-- Created with Inkscape (http://www.inkscape.org/) -->

<svg
   width="511.99994"
   height="511.99997"
   viewBox="0 0 135.46664 135.46666"
   version="1.1"
   id="svg5"
   xmlns="http://www.w3.org/2000/svg"
   xmlns:svg="http://www.w3.org/2000/svg"
   xmlns:rdf="http://www.w3.org/1999/02/22-rdf-syntax-ns#"
   xmlns:cc="http://creativecommons.org/ns#">
  <defs
     id="defs2" />
  <g
     id="layer1">
    <rect
       style="fill:#a40000;fill-opacity:1;stroke-width:0.372684"
       id="rect236"
       width="135.46666"
       height="135.46666"
       x="0"
       y="-3.5527137e-15" />
    <g
       aria-label="AAA4J"
       transform="scale(1.0002815,0.99971858)"
       id="text1110"
       style="font-size:50.7857px;letter-spacing:0px;fill:#aa0000;stroke-width:0.264925">
      <path
         d="m 6.779869,86.040398 8.5852,-37.084 h 7.3152 l 8.5852,37.084 h -6.4008 l -5.7404,-29.4132 h -0.2032 l -5.7404,29.4132 z m 5.1816,-8.4836 v -5.4356 h 14.1224 v 5.4356 z"
         style="font-weight:600;font-size:50.8px;font-family:'M PLUS 1 Code';-inkscape-font-specification:'M PLUS 1 Code Semi-Bold';text-align:center;text-anchor:middle;display:inline;fill:#ffffff"
         id="path389" />
      <path
         d="m 32.179771,86.040398 8.5852,-37.084 h 7.3152 l 8.5852,37.084 h -6.4008 l -5.7404,-29.4132 h -0.2032 l -5.7404,29.4132 z m 5.1816,-8.4836 v -5.4356 h 14.1224 v 5.4356 z"
         style="font-weight:600;font-size:50.8px;font-family:'M PLUS 1 Code';-inkscape-font-specification:'M PLUS 1 Code Semi-Bold';text-align:center;text-anchor:middle;display:inline;fill:#ffffff"
         id="path391" />
      <path
         d="m 57.579674,86.040398 8.5852,-37.084 h 7.315199 l 8.5852,37.084 h -6.4008 l -5.740399,-29.4132 h -0.2032 l -5.7404,29.4132 z m 5.1816,-8.4836 v -5.4356 h 14.122399 v 5.4356 z"
         style="font-weight:600;font-size:50.8px;font-family:'M PLUS 1 Code';-inkscape-font-specification:'M PLUS 1 Code Semi-Bold';text-align:center;text-anchor:middle;display:inline;fill:#ffffff"
         id="path393" />
      <path
         d="m 97.000376,86.040398 v -6.858 h -13.9192 v -5.4356 l 13.9192,-24.7904 h 6.553204 v 24.7904 h 3.81 v 5.4356 h -3.81 v 6.858 z m -7.0612,-12.1412 h 7.4676 v -13.1572 h -0.2032 l -7.2644,12.954 z"
         style="font-weight:600;font-size:50.8px;font-family:'M PLUS 1 Code';-inkscape-font-specification:'M PLUS 1 Code Semi-Bold';text-align:center;text-anchor:middle;display:inline;fill:#ffffff"
         id="path395" />
      <path
         d="m 117.87908,86.548398 q -4.4196,0 -7.7724,-1.4732 v -5.8928 q 1.5748,0.762 3.3528,1.2192 1.8288,0.4572 3.5052,0.4572 2.7432,0 3.9624,-1.27 1.2192,-1.3208 1.2192,-4.1148 v -21.082 h -10.0076 v -5.4356 h 16.51 v 27.178 q 0,5.4356 -2.5908,7.9248 -2.54,2.4892 -8.1788,2.4892 z"
         style="font-weight:600;font-size:50.8px;font-family:'M PLUS 1 Code';-inkscape-font-specification:'M PLUS 1 Code Semi-Bold';text-align:center;text-anchor:middle;display:inline;fill:#ffffff"
         id="path397" />
    </g>
  </g>
  <metadata
     id="metadata318">
    <rdf:RDF>
      <cc:Work
         rdf:about="">
        <cc:license
           rdf:resource="http://creativecommons.org/licenses/by/4.0/" />
      </cc:Work>
      <cc:License
         rdf:about="http://creativecommons.org/licenses/by/4.0/">
        <cc:permits
           rdf:resource="http://creativecommons.org/ns#Reproduction" />
        <cc:permits
           rdf:resource="http://creativecommons.org/ns#Distribution" />
        <cc:requires
           rdf:resource="http://creativecommons.org/ns#Notice" />
        <cc:requires
           rdf:resource="http://creativecommons.org/ns#Attribution" />
        <cc:permits
           rdf:resource="http://creativecommons.org/ns#DerivativeWorks" />
      </cc:License>
    </rdf:RDF>
  </metadata>
</svg>
